<svg xmlns="http://www.w3.org/2000/svg" style="display:none">
  <symbol id="icon-chart" viewBox="0 0 24 24">
    <path d="M3 3v18h18" fill="none" stroke="#000" stroke-width="1.5" stroke-linecap="round" stroke-linejoin="round"/>
    <path d="M18 15l-4-5-4 7-4-4" fill="none" stroke="#000" stroke-width="1.5" stroke-linecap="round" stroke-linejoin="round"/>
  </symbol>
  <symbol id="icon-portfolio" viewBox="0 0 24 24">
    <rect x="2" y="7" width="20" height="14" rx="2" ry="2" fill="none" stroke="#000" stroke-width="1.5"/>
    <path d="M16 3h-8v4h8V3z" fill="none" stroke="#000" stroke-width="1.5"/>
  </symbol>
  <symbol id="icon-phone" viewBox="0 0 24 24">
    <path d="M22 16.92v3a2 2 0 0 1-2.18 2 19.79 19.79 0 0 1-8.63-3.07 19.5 19.5 0 0 1-6-6A19.79 19.79 0 0 1 3.08 4.18 2 2 0 0 1 5 2h3a2 2 0 0 1 2 1.72 12.41 12.41 0 0 0 .7 3.24 2 2 0 0 1-.45 2.11L9.6 10.9a16 16 0 0 0 6 6l1.84-1.05a2 2 0 0 1 2.11-.45 12.41 12.41 0 0 0 3.24.7A2 2 0 0 1 22 16.92z" fill="none" stroke="#000" stroke-width="1.4" stroke-linecap="round" stroke-linejoin="round"/>
  </symbol>
  <symbol id="icon-pdf" viewBox="0 0 24 24">
    <path d="M14 2H6a2 2 0 0 0-2 2v16a2 2 0 0 0 2 2h12a2 2 0 0 0 2-2V8z" fill="none" stroke="#000" stroke-width="1.4"/>
    <path d="M14 2v6h6" fill="none" stroke="#000" stroke-width="1.4"/>
  </symbol>
</svg>

